<svg width="14" height="15" viewBox="0 0 14 15" fill="none" xmlns="http://www.w3.org/2000/svg">
<path d="M10.75 2.61111V3.22222H9.5V2.61111C9.5 2.275 9.21875 2 8.875 2H5.125C4.78125 2 4.5 2.275 4.5 2.61111V3.22222H3.25V2.61111C3.25 2.275 2.96875 2 2.625 2C2.28125 2 2 2.275 2 2.61111V12.3889C2 12.725 2.28125 13 2.625 13C2.96875 13 3.25 12.725 3.25 12.3889V11.7778H4.5V12.3889C4.5 12.725 4.78125 13 5.125 13H8.875C9.21875 13 9.5 12.725 9.5 12.3889V11.7778H10.75V12.3889C10.75 12.725 11.0312 13 11.375 13C11.7188 13 12 12.725 12 12.3889V2.61111C12 2.275 11.7188 2 11.375 2C11.0312 2 10.75 2.275 10.75 2.61111ZM4.5 10.5556H3.25V9.33333H4.5V10.5556ZM4.5 8.11111H3.25V6.88889H4.5V8.11111ZM4.5 5.66667H3.25V4.44444H4.5V5.66667ZM10.75 10.5556H9.5V9.33333H10.75V10.5556ZM10.75 8.11111H9.5V6.88889H10.75V8.11111ZM10.75 5.66667H9.5V4.44444H10.75V5.66667Z" fill="red"/>
</svg>
